<svg xmlns="http://www.w3.org/2000/svg" viewBox="0 0 136.38 50.93"><path d="M16.37,60.05V18.42H1.5V10H41.32v8.47H26.49V60.05Z" transform="translate(-1.5 -9.95)"/><path d="M63.61,48.5l9.57,1.61a15.69,15.69,0,0,1-5.83,8,17.05,17.05,0,0,1-10,2.75q-9.47,0-14-6.18-3.59-5-3.58-12.51,0-9,4.71-14.14a15.56,15.56,0,0,1,11.93-5.11q8.1,0,12.78,5.35t4.48,16.39H49.63A9.72,9.72,0,0,0,52,51.32a7.26,7.26,0,0,0,5.54,2.38,5.87,5.87,0,0,0,3.79-1.23A7.64,7.64,0,0,0,63.61,48.5Zm.55-9.71A9.25,9.25,0,0,0,62,32.45a6.93,6.93,0,0,0-10.18.12,8.87,8.87,0,0,0-2,6.22Z" transform="translate(-1.5 -9.95)"/><path d="M76.9,60.05,90,41.36,77.45,23.75H89.17l6.43,10,6.77-10h11.28L101.34,41l13.44,19.1H103L95.6,48.81,88.15,60.05Z" transform="translate(-1.5 -9.95)"/><path d="M137.09,23.75v7.66h-6.56V46a35.52,35.52,0,0,0,.19,5.18,2.07,2.07,0,0,0,.86,1.21,2.68,2.68,0,0,0,1.62.48,12.56,12.56,0,0,0,3.86-.92l.82,7.45a19,19,0,0,1-7.59,1.43,12,12,0,0,1-4.68-.87,6.85,6.85,0,0,1-3.06-2.25A8.92,8.92,0,0,1,121.2,54a47.07,47.07,0,0,1-.31-6.76V31.41h-4.41V23.75h4.41V16.54l9.64-5.6V23.75Z" transform="translate(-1.5 -9.95)"/></svg>